<svg id="Layer_1" data-name="Layer 1" xmlns="http://www.w3.org/2000/svg" xmlns:xlink="http://www.w3.org/1999/xlink" viewBox="0 0 1032.98 1000.87"><defs><style>.cls-1{fill:#ffb893;}.cls-1,.cls-2{opacity:0.51;}.cls-2{fill:#36516c;}.cls-3{fill:#fffcf9;}.cls-4{fill:url(#linear-gradient);}.cls-5{fill:url(#linear-gradient-2);}.cls-6{fill:#ffc620;}.cls-7{fill:#ff5116;}.cls-8{fill:#00abda;}.cls-9{fill:#004e74;}.cls-10{fill:#fff;}.cls-11{fill:aqua;}</style><linearGradient id="linear-gradient" x1="187.89" y1="532.84" x2="1101.37" y2="532.84" gradientUnits="userSpaceOnUse"><stop offset="0" stop-color="#fde7d5"/><stop offset="0.42" stop-color="#e7bb9e"/><stop offset="0.98" stop-color="#f6dac8"/></linearGradient><linearGradient id="linear-gradient-2" x1="372.52" y1="106.19" x2="959.88" y2="944.51" gradientUnits="userSpaceOnUse"><stop offset="0" stop-color="#e9aa8c"/><stop offset="0.44" stop-color="#5e4940"/><stop offset="0.98" stop-color="#cb937b"/></linearGradient></defs><title>nest</title><path class="cls-1" d="M659.49,955.32c-35.61,0-69-5.54-99.4-12q-10.62-2.29-21.25-4.47c-52.73-11-107.26-22.37-156.63-49.34-49.87-27.24-96.17-74.35-141.56-144C224.75,721,212,698.08,201.9,675.53a251,251,0,0,1-10.23-25.46C179.09,614.91,173,579.79,172,540.67c-.85-33,11.82-90.2,18.62-120.9.31-1.38.64-2.92,1-4.59,7.71-35.62,28.17-130.19,112.11-226.66,52.73-60.59,118.19-84.93,176-106.4,6.12-2.27,12.13-4.5,18-6.74,51.54-19.61,111.91-26.85,179.44-21.47,53,4.22,111.47,16.08,178.69,36.25,34.63,10.39,60.75,22,84.7,37.74,22.31,14.66,40.22,35.51,57.54,55.7,4.37,5.07,8.88,10.35,13.38,15.39,44,49.41,61.2,108.32,79.43,170.68,2.77,9.46,5.63,19.25,8.57,28.93,24,79.1,25.26,167.26,3.49,248.26-22.73,84.53-67.9,155.57-130.64,205.46-76.92,61.15-158.11,94.36-234.81,96-3.74.08-7.49,0-11.22-.1A308.21,308.21,0,0,1,659.49,955.32ZM227.16,718.59q7.29,12.46,15.73,25.41C288,813.28,334,860.1,383.48,887.12c49,26.79,103.36,38.12,155.9,49.07q10.64,2.2,21.26,4.48c45.85,9.8,98.58,17.4,155.29,6.93-24.16-2.1-48.06-8-71.35-13.81-7.08-1.75-14.4-3.57-21.57-5.24-11.64-2.71-23.29-5.77-34.88-9a417.15,417.15,0,0,1-56.85-7.88c-66.74-14-163.6-39.74-234-102.25-23.5-20.87-44.46-48.23-61.62-79.49Q231.24,724.3,227.16,718.59ZM673.35,98.91h3.12c21.34.17,40.36,5.74,60.51,11.65,8.36,2.46,17,5,25.77,7.09,64.52,15.35,126.35,48.06,178.8,94.57,53.08,47.06,93.87,106,118,170.37,23.36,62.45,20.54,139.88-8.37,230.16-19.06,59.5-44.33,128-87.34,184.55-46,60.51-107.92,104.37-194.89,138a294.94,294.94,0,0,1-32,10.33h.5C813.48,944,894.12,911,970.58,850.22c124.83-99.24,176.74-284.64,126.26-450.85-2.94-9.7-5.81-19.47-8.57-28.95-18.15-62.07-35.29-120.69-78.87-169.65-4.51-5.07-9-10.35-13.41-15.44-17.2-20-35-40.75-57-55.19-23.72-15.56-49.63-27.11-84-37.43-94.9-28.48-235.11-61-356.41-14.82q-8.79,3.33-18,6.74C423.13,106,358,130.2,305.72,190.27c-83.49,96-103.85,190-111.51,225.47-.36,1.69-.7,3.23-1,4.62-6.29,28.4-19.4,87.53-18.56,120.24a372.57,372.57,0,0,0,4.83,52.1c-6.77-64.73,5.49-129,38.16-200.78,18-39.52,39.78-84.72,71.09-120.57,13.67-15.64,28.61-27.51,44.42-40.08L341,225c3.3-2.66,6.5-5.64,9.59-8.52,3.47-3.25,7.05-6.59,10.83-9.52,19.5-15.13,103.3-54.41,127.14-63.46a387.7,387.7,0,0,1,74-28.89C602.64,103.79,637,98.91,673.35,98.91ZM600.66,920.19c7.65,2,15.3,4,23,5.76,7.19,1.68,14.52,3.49,21.61,5.26,26.34,6.52,53.47,13.25,80.74,14.35a289.26,289.26,0,0,0,42-12.71c86.49-33.46,148-77,193.73-137.16,42.77-56.28,67.94-124.46,86.92-183.74,28.72-89.69,31.55-166.54,8.42-228.4-24.5-65.5-66.47-124.41-119-170.6,30.75,34.21,61,84.95,68.17,126.62q2.29,13.37,4,26.74c22.4,33.61,26.95,62.53,31.08,101.57,7.12,67.4,10.72,154.26-24.87,228.29-46.2,96.08-143.78,152.37-197.84,177.38C745.32,907.39,672.33,923,600.66,920.19Zm-12.08-3.32c75.15,5.15,151.86-10.16,228.77-45.74,53.74-24.87,150.72-80.8,196.56-176.13,35.3-73.4,31.7-159.78,24.62-226.83-3.9-36.86-8.17-64.6-27.7-95.81,10.7,93.09-.84,185.42-33.25,263.13-22,52.73-48.08,95.34-82.09,134.11C880.4,786.79,861,799,842.19,810.8c-3.79,2.39-7.57,4.76-11.32,7.16-33.69,21.74-63.21,35.68-92.88,43.83-60.5,16.67-131.28,11.41-216.4-16.09-59.38-19.19-141-54.33-192.8-112.8-44.32-50.08-65.68-118.46-60.14-192.57,5.09-68.22,32.84-137.68,76.13-190.58,31.6-38.62,71.37-74.23,118.2-105.84a653.32,653.32,0,0,1,139.77-71.56C655.21,153.26,704.92,152,769,168.17c27.87,7,55.06,18,83.14,33.41,27.31,15,47,36.59,67.81,59.42,2.68,2.93,5.38,5.89,8.11,8.85q5,5.4,9.92,10.72c23.64,25.52,46,49.63,66.85,78.16.68.92,1.35,1.84,2,2.76q-1.44-10.74-3.28-21.47c-8.73-51-52.57-115.77-88.93-146.24-45.61-34.84-97.69-60.5-152.45-73.52-8.82-2.1-17.51-4.66-25.9-7.12-20-5.86-38.81-11.39-59.78-11.54-37.26-.29-72.21,4.53-113.19,15.6a384.19,384.19,0,0,0-73.14,28.5,1.33,1.33,0,0,1-.35.2l-.16.06c-39.4,20-79.3,47.58-119.28,82.43-46.82,40.81-99.88,87.08-134.85,148a339,339,0,0,0-42.4,214.08A397.38,397.38,0,0,0,237.54,727.8C312.72,823.34,444,873,509.68,892.92c9,2.72,18.11,5.56,26.94,8.29C553.67,906.52,571.07,911.91,588.58,916.87ZM245.75,742.07c15.42,25.38,33.45,47.7,53.29,65.32C369,869.47,465.38,895.11,531.82,909a416.29,416.29,0,0,0,43.09,6.68c-13.16-3.87-26.22-7.92-39.08-11.92-8.83-2.74-18-5.58-26.92-8.3-55.43-16.78-135.86-47.62-204.19-99.13A386.23,386.23,0,0,1,245.75,742.07ZM687.81,159.63c-29,0-56.2,5.06-84.15,15.23C503.48,211.34,407.47,277.35,346.84,351.45c-83.15,101.61-111.89,271.4-16,379.66,51.36,58,132.55,93,191.62,112C607,870.5,677.3,875.74,737.28,859.23c29.41-8.1,58.69-21.93,92.15-43.5,3.75-2.42,7.55-4.81,11.35-7.2,18.62-11.69,37.88-23.79,52.71-40.7,33.81-38.54,59.74-80.93,81.63-133.37,32.86-78.78,44.14-172.73,32.42-267.18-1.55-2.3-3.18-4.62-4.9-7-20.78-28.41-43.06-52.45-66.65-77.9l-9.93-10.73c-2.73-3-5.43-5.93-8.11-8.87-20.68-22.67-40.21-44.08-67.14-58.88-27.87-15.34-54.86-26.19-82.5-33.17C739,163.36,712.72,159.63,687.81,159.63ZM203.48,672.49a267.57,267.57,0,0,0,24.22,42.08,402,402,0,0,1-37.27-123.73,341.8,341.8,0,0,1,42.74-215.78c35.19-61.31,88.43-107.73,135.41-148.69q48.06-41.88,95.79-69.68C430,172.1,377.81,197.62,363,209.08c-3.68,2.86-7.22,6.17-10.64,9.36-3.13,2.91-6.37,5.94-9.74,8.66l-7.85,6.25c-15.72,12.5-30.56,24.3-44.07,39.77C259.66,308.7,238,353.67,220.05,393c-34.78,76.49-46.29,144.25-36.19,213.2a242.78,242.78,0,0,0,10.54,43.53C197.12,657.32,200.14,664.87,203.48,672.49Z" transform="translate(-128.56 -9.6)"/><path class="cls-2" d="M582.8,924.65l-2,0c-48.42-.15-92-1.9-134.55-21.93-32.9-15.46-60-35.8-89.12-67.11-22.05-12.14-42-26.78-57.88-45-54.82-63-69.85-148.5-76.82-215.91-4-39.06-8.07-85.08-7.43-130.35.38-26.9,12.34-89.34,54.73-152.83A384.74,384.74,0,0,1,323.07,228a317.9,317.9,0,0,1,30.32-32.78c42.4-39.72,93.42-65.4,152.43-76.83q27.21-9.9,56.57-18A336.35,336.35,0,0,1,675.32,89.21c40.11,3,77.38,13.72,107.77,31.05A765.67,765.67,0,0,1,863.92,173c10.29,4.69,21.21,8.86,32.64,13.24,28.1,10.76,57.16,21.88,77.74,41.5,34.69,33.09,75,96.39,82.42,145,17,111.43,11.9,195.3-16,264-23.86,58.7-65.06,107.7-133.48,158.66-18.68,17.56-40,35.09-63.19,48.79-48.87,28.88-91,48.62-132.73,62.13C672.66,918.79,631.77,924.63,582.8,924.65ZM368.17,841.4c25.84,26.35,50,43.68,79.75,57.67,41.84,19.67,84.93,21.41,132.86,21.56h2c48.54,0,89-5.79,127.28-18.18,41.4-13.41,83.32-33,131.93-61.78q6.3-3.72,12.42-7.81A216,216,0,0,1,815,852.08l-7.7,2.85a370.09,370.09,0,0,1-44.69,16.82c-32.43,11.82-65.71,22.08-99.86,24.36C590,901,525.12,895.2,470,879,436.41,869.06,400.51,857.59,368.17,841.4Zm-8.59-9c34.61,19,74.5,31.81,111.59,42.73,54.63,16.09,119,21.82,191.36,17,18.58-1.24,37-4.89,55.11-9.89-36.82,6.15-75.6,7-115.78,2.6-96.76-10.67-198.62-67-279.48-154.53-24.62-26.65-41.7-52.46-52.3-79.32a520,520,0,0,0,20.19,61.31c14,35.51,33.8,80.41,62.72,112.87Q356.32,828.86,359.58,832.39Zm52.5-666.32c-70.24,43.24-107.79,138.22-127.14,212.66-22.18,85.28-27.55,170.09-27,191.33.42,16.14,3.4,32.23,6.41,47.34,7.68,38.44,27,73.43,61,110.16,80.22,86.84,181.17,142.71,277,153.27,54.61,6,106.59,2.15,154.49-11.53,1.53-.43,3.07-.89,4.6-1.34,9.35-3.4,18.63-6.94,27.84-10.44,5.47-2.09,11.07-4.22,16.63-6.3a506.86,506.86,0,0,0,71.06-39.47C934.14,764.38,988.33,673,1004.21,498.6a2,2,0,1,1,4,.36C994.12,653.59,950,743.59,900.08,795.65l3.18-2.35,1.4-1c12.16-11.42,23.2-22.87,32.91-33.25,27.32-29.21,52.06-66.86,66.2-100.69,46.47-111.21,83.15-312.36-142.1-482-2.43-1.12-4.83-2.25-7.17-3.42-43.68-21.77-88.61-37.09-126.52-43.12-38.42-6.1-78.55-10.68-116.07-13.22s-72.7-.62-105.36,5.71a600.4,600.4,0,0,0-79.5,35.39,1.93,1.93,0,0,1-.69.53c-1.3.63-2.6,1.28-3.88,2Q417.22,163.08,412.08,166.07ZM305.59,251.68a379,379,0,0,0-32.56,42c-41.88,62.71-53.69,124.2-54.06,150.64-.64,45.07,3.38,91,7.41,129.88,6.91,66.83,21.78,151.52,75.86,213.69,12.91,14.86,28.65,27.29,46.06,37.94-28.41-32.75-47.89-77-61.74-112.11-14.69-37.2-24.05-70.91-28.64-103-8.88-62.31-13.19-126.07-13.19-194.94,0-13.4,5.83-48.27,21.88-89.37A386.89,386.89,0,0,1,305.59,251.68Zm571-69c92.9,73.44,147.44,159.18,162.52,255.87,11,70.38.34,144.83-31.61,221.3-14.31,34.24-39.35,72.33-67,101.87q-4.47,4.78-9.31,9.84c103.08-84.71,154.2-184.38,121.59-398.26-7.19-47.14-47.76-110.78-81.22-142.69-20-19.08-48.69-30.07-76.42-40.67C889,187.58,882.72,185.2,876.55,182.7ZM326.38,230.12c-63.31,78.13-77.66,168.78-77.66,185.66,0,45.84,1.92,89.4,5.83,131.78,2-36.21,9.12-102.92,26.52-169.84,13.38-51.46,30.72-95.63,51.53-131.22q20.07-34.32,44.41-58A427.43,427.43,0,0,0,326.38,230.12ZM478.56,129a295.18,295.18,0,0,0-122.44,69.13q-3.53,3.3-6.9,6.66,12-9.79,24.95-18.93,15-10.59,31.22-20.28a167.6,167.6,0,0,1,19.24-10.94l.1,0A579,579,0,0,1,478.56,129Zm101.78-17.48q15.61,0,31.84,1.09c37.63,2.55,77.89,7.13,116.43,13.26,34.64,5.52,75,18.68,115,37.38Q815,143.13,781.11,123.73c-58.86-33.54-140.23-40.84-217.66-19.52q-17.9,4.92-34.94,10.5A409.26,409.26,0,0,1,580.34,111.51Z" transform="translate(-128.56 -9.6)"/><path class="cls-3" d="M662.25,967.92c-62.33,0-125.08-11.13-180.84-31.39-38.86-9-74.52-22.49-104.62-39.95C340.25,875.38,310.06,848,284.5,813c-21.65-29.64-40.08-65.18-56.35-108.62-.31-.82-.61-1.65-.9-2.46-9.36-23.51-19.68-59.11-22.66-106.28-4.17-66.17,7.2-137.06,33.79-210.7,9.23-26.64,18.73-54,37-77.88a741.94,741.94,0,0,1,37.47-75.78c32.85-57.93,95.9-104.53,187.4-138.48C551,74,601.35,65.94,643.94,60.56c44.41-5.62,84.22,2.31,124.47,11.65a256.82,256.82,0,0,1,122.2,66.24c30.42,29.4,55.59,67.46,74.8,113.12Q967.8,257.26,970,263c19.59,24.13,37.33,52.17,54.06,85.43,18.77,37.32,24.22,79.22,29,116.17,5.75,44.35.3,88.85-5,131.91-.87,7.15-1.75,14.29-2.57,21.45-4.37,37.7-11.34,78.23-32.67,119.16-25.69,49.27-66.06,90.62-125.76,128.4a309.62,309.62,0,0,1-62.25,55.86c-43.88,29.4-94.23,45-149.67,46.4Q668.73,967.91,662.25,967.92ZM514,943a536.34,536.34,0,0,0,161.07,20.8c77.88-2,145.8-33,199.77-90.73q-8.76,5.26-18,10.41A305.87,305.87,0,0,1,774,914.63c-34.15,15.58-71.1,27.71-109.55,31.93A563.53,563.53,0,0,1,514,943Zm-31.48-10.26c56.14,13,119.05,16.72,181.5,9.89,31.86-3.5,62.71-12.51,91.79-24.43a388.71,388.71,0,0,1-83.16,4.28c-60.79-3.13-124.53-19.34-184.32-46.87-46.13-21.23-105.19-52.29-152.85-104.44a537.71,537.71,0,0,1-47.65-60.25c14.11,31,36.68,71.33,67.78,98.87a2,2,0,0,1,.18,2.83,2,2,0,0,1-2.82.16c-39.43-34.91-65.28-89.78-77.79-121.4a475.24,475.24,0,0,1-49-106.34,224.72,224.72,0,0,1-6.37-25.44c-4.79,47.5-4.82,96.27,11.08,140.68,1.28,3.25,2.52,6.19,3.68,8.84,11,24.78,22.32,45.61,34.75,63.65C295.67,811,337,849.5,392.3,887.24,418.82,905.34,449.44,920.65,482.55,932.69ZM259.14,764.55c30.68,58.35,69,99.15,119.65,128.55,21.3,12.38,45.42,22.7,71.51,30.85a389.48,389.48,0,0,1-60.25-33.4c-55.67-38-97.39-76.89-124-115.54Q262.53,769.93,259.14,764.55Zm19.65-75a530.74,530.74,0,0,0,59.67,78.89C385.63,820,444.24,850.86,490,871.92c97.06,44.68,197.74,57.66,283.52,38.53,37-17,70.66-38,99.36-57.24A415.81,415.81,0,0,0,915.11,821c2.52-3.91,5-7.88,7.42-11.95,46.18-77.3,75.69-182.68,81-289.15,2.81-56.75-1.06-118.12-13.78-176.79-13-20.55-27.39-40.4-42.17-60.86l-4.81-6.65c-21.67-30-55.57-72.25-99.63-92.32-28.39-12.92-59.27-20-97.17-22.31-16.86-1-33.95-2.53-50.47-4-22.88-2-46.54-4.08-69.91-4.92q-12.1-.44-24,0c-66.46,11.41-129.4,44.68-173.1,70.25-51.79,30.29-100.44,61.4-126.6,108.78-28.23,51.16-45.77,116.22-49.38,183.2-3.37,62.48,5.13,120.5,25.26,172.46C278.06,687.67,278.42,688.6,278.79,689.53ZM907.09,833q-15,12.18-32,23.52c-24.16,16.18-51.83,33.62-82,48.9a296.06,296.06,0,0,0,61.79-25.52q15.4-8.58,29.35-17.37A365.4,365.4,0,0,0,907.09,833Zm11.08-9.33q-10.75,16.66-22.55,31.49c53.28-35.51,89.92-74.29,113.71-120,21-40.36,27.92-80.44,32.24-117.75.83-7.18,1.71-14.34,2.59-21.5,5.24-42.79,10.66-87,5-130.88-4.76-36.65-10.16-78.19-28.62-114.89C1006.14,321.65,991,297,974.65,275.35a533.48,533.48,0,0,1,18.84,66.29A427.14,427.14,0,0,1,1024.43,399c20.68,47.28,27.1,86.94,22.13,136.91-4.62,46.6-12.15,86.62-23,122.37C1003.11,725.54,969.14,779.13,918.17,823.7Zm77.7-470.62c13.31,67.52,13.49,129.3,11.62,167.06-5.3,107.1-35,213.16-81.53,291l-.08.13c44.69-42.17,75-92.33,93.84-154.17,10.79-35.49,18.26-75.28,22.87-121.62,4.88-49.21-1.44-88.3-21.83-134.88A405.41,405.41,0,0,0,995.87,353.08ZM221.47,544.56A227.57,227.57,0,0,0,230,583.78a464.83,464.83,0,0,0,37.69,86.84c-15.78-47.87-22.24-100.42-19.22-156.51,3.65-67.58,21.37-133.25,49.88-184.92,26.65-48.28,75.79-79.73,128.09-110.31,37.78-22.11,89.86-49.94,146.32-64.64-81.22,9.29-152.64,44.51-201.62,75.38a441.91,441.91,0,0,0-83.35,69c-3.21,3.4-6.18,6.92-9,10.51a698.64,698.64,0,0,0-48,170.07c-.66,4.48-1.34,9-2,13.53C226.21,509.53,223.59,526.91,221.47,544.56Zm-3.94-70.62c-13.75,69.32-10.89,125.72-3.19,167.44-2.91-32-.72-64.87,3.1-96.82A295.69,295.69,0,0,1,217.53,473.94Zm24.63-87.65c-13,37.44-25.3,88-22.36,140,1.59-11.58,3.31-23,5-34.2q1-6.8,2-13.5a699.59,699.59,0,0,1,40.95-153c-11.28,19.28-18.53,40.2-25.62,60.68ZM633.5,148.42c20.91,1,41.92,2.83,62.31,4.62,16.5,1.44,33.56,2.94,50.37,4,38.4,2.33,69.72,9.54,98.58,22.68C889.68,200.14,924,242.9,946,273.28l4.8,6.65c12.61,17.45,24.91,34.45,36.35,51.84a509.5,509.5,0,0,0-20.69-66.87c-1.55-1.91-3.12-3.78-4.7-5.64-25.93-30.53-64.4-53.38-95-69.86C809.45,158.56,722.37,143.27,633.5,148.42Zm40.56-85.73a236.43,236.43,0,0,0-29.62,1.84C602.07,69.88,552,77.89,501.61,96.58,411,130.2,348.67,176.19,316.3,233.27q-17.6,31-31.94,63.13l.51-.54c24.88-26.4,54.76-51.13,84.14-69.64,55.05-34.69,138.3-74.85,232.12-78.12a285,285,0,0,1,30.66-3.59c90.08-5.46,178.61,10,236.82,41.35,29.71,16,66.75,38,93,67.18-36.29-85.73-98-154.63-194.1-176.93C736.82,69,706.39,62.69,674.06,62.69Z" transform="translate(-128.56 -9.6)"/><path class="cls-4" d="M713.68,993.8q-6.09,0-12.21-.18c-73.07-2.19-162.56-11.77-236.5-61.51-33.47-14-68.19-35.93-108.55-68.58-52.65-42.59-105.78-92.66-137.77-169.95-15.61-37.73-22.26-78.17-25.08-105.45-1.42-13.78-1.26-27.8-1.11-41.35.06-5.06.12-10.29.1-15.41-.06-10.55-1.21-21.26-2.33-31.63-1.73-16.07-3.53-32.71-1.29-49.34,1.8-13.36,5.31-26.34,8.71-38.9,1.48-5.43,3-11.09,4.37-16.68,1.45-5.92,2.66-12.13,3.84-18.13,3-15.56,6.2-31.65,13.82-45.82,4.88-9.08,11.07-17.46,17-25.54,4.39-5.94,8.94-12.09,12.86-18.4,3.27-5.26,6.32-10.62,9.27-15.81,7.85-13.81,15.27-26.85,26.66-38.49,8.67-8.86,17.14-17.44,25.52-25.72q1.13-1.74,2.25-3.51c22.63-35.32,44.32-66.28,80.74-87.13C424.53,98.8,462.13,86.64,512.34,78,583.16,65.83,658.45,71.91,729.05,95c64.3,11.24,123.07,26.49,177.16,59.1,69.89,42.11,126.31,108.5,154.82,182.12,20.39,52.68,31.62,107.6,33.24,160.59,5.38,23.19,8.58,46.49,6.42,68.47a185.72,185.72,0,0,1-4.77,26.64c1.62,51.81-4.84,102.56-19.5,146.24-23.92,71.24-66.23,129.55-129.37,178.29C882.12,966.53,799.66,993.8,713.68,993.8ZM489.9,941c68.2,37.44,146.55,45.3,211.73,47.24,89.13,2.66,175.14-24.35,242.17-76.09,63.14-48.74,103.67-104.58,127.56-175.75,12.83-38.21,19.3-81.92,19.48-127-7.14,21.94-16.77,42.91-25.18,59.29-9.47,18.45-20.21,37.1-32,55.68a422,422,0,0,1-28.62,42c-16,21.92-33.32,43.51-51.78,64.36L948.6,836c-40.9,46.29-83.19,94.16-141.94,117-28.37,11-61.95,16.73-102.66,17.49-35.31.65-87.69-1.11-136.81-13.21q-7.22-1.79-14.44-4C532.08,950.91,510.48,947.18,489.9,941Zm98,15.26c42.58,8.14,85.65,9.38,116,8.82C744,964.36,777,958.75,804.73,948c49.12-19.08,86.81-56.39,122-95.4-39.11,37.18-83.74,69.21-136.18,84a544,544,0,0,1-113.15,19.35c-27,2.46-53.22,2.16-77.86,1Q593.87,956.64,587.91,956.29Zm-63.78-18.87c7.47,2.07,14.93,3.82,22.33,5.22a521.47,521.47,0,0,0,130.12,8c47.28-4.29,97.1-17.18,145.52-49,63.28-41.67,110.57-78.78,150.75-134.94,37.87-52.94,63.62-118.38,76.53-194.5.49-2.92,1-5.82,1.49-8.72,5.49-31.91,10.68-62,7.11-93.75-3.45-30.65-13.26-61.36-22.37-86.22q-6.66-12.06-14-23.34c-15.14-20.37-31.18-40.56-48.71-59.32.57,1.22,1.15,2.46,1.71,3.7,21.79,47.87,35.07,88.72,41.79,128.58,7.3,43.35,4.16,83.74-.71,132-.64,6.33-1.23,12.82-1.8,19.11-3,33.18-6.12,67.48-18.28,99-12.46,32.29-28.57,63.2-46.59,89.37-36.49,53-94.2,92.43-136.2,116.21C745.54,926.93,669.67,936,574.1,917.49c-42.7-8.3-82.68-27.31-121.35-45.69q-7.17-3.42-14.33-6.8a474.53,474.53,0,0,1-68.28-39.14c1.9,2.77,3.82,5.52,5.79,8.28C423.25,881.54,473.55,916.57,524.13,937.42Zm-56.59-10c2.27.94,4.54,1.84,6.79,2.7a284,284,0,0,0,51.94,13.95l-3.87-1.56a355.55,355.55,0,0,1-78.32-32.84A273.13,273.13,0,0,0,467.54,927.4Zm585.19-509.14a311.53,311.53,0,0,1,10.55,50.83c3.65,32.44-1.84,64.38-7.15,95.26q-.75,4.33-1.49,8.69c-13.05,76.94-39.11,143.12-77.46,196.72C936.52,826.6,888.82,864.06,825,906.05a299.07,299.07,0,0,1-68.14,33.42q16.18-3.51,32.19-8c83.78-23.65,147.68-92.5,201-155.17q5.45-6.4,10.67-13.12,15.06-20.68,28.4-41.66c25.44-42.54,44.09-90.34,53.17-137.57,2.22-11.51,3.9-23.28,5-35.22a479.09,479.09,0,0,0-21.86-97.44Q1059.65,434.14,1052.73,418.26ZM362,813.43a460.73,460.73,0,0,0,78.7,46.73c4.78,2.25,9.56,4.54,14.35,6.8,38.36,18.25,78,37.13,120.08,45.28,94.25,18.3,169,9.37,235.12-28.08,41.51-23.51,98.52-62.47,134.43-114.59,17.79-25.84,33.7-56.36,46-88.27,11.89-30.83,15-64.75,17.94-97.55.57-6.3,1.16-12.83,1.81-19.19,4.82-47.88,7.94-87.9.75-130.59-6.63-39.39-19.78-79.82-41.38-127.25q-4.31-9.45-9.08-18.51c-21.54-21.32-45.35-40.23-72.39-54.66C825.39,200,742.59,184.2,666.84,191.35c-60.48,5.71-143.58,27.33-195.42,70.9-21.91,18.42-53.4,47.13-79.06,79.33-23.29,29.24-40.86,71.51-52.05,100.76-29.11,76.12-40.11,158-31,230.41C315.32,720.22,333.46,768.21,362,813.43Zm63,78.46a392.3,392.3,0,0,0,54.24,29.39c-27.75-15.82-55.15-35.75-81.8-59.49Q410.35,877.21,425,891.89ZM243.9,304.59c-1,1.33-1.93,2.63-2.89,3.93-5.87,7.93-11.93,16.14-16.64,24.88-7.24,13.47-10.31,29.15-13.28,44.32-1.19,6.06-2.41,12.33-3.89,18.37-1.38,5.67-2.92,11.34-4.4,16.82-3.36,12.39-6.83,25.19-8.58,38.21-2.15,16-.39,32.29,1.31,48.06,1.13,10.49,2.3,21.34,2.36,32.17,0,5.17,0,10.41-.1,15.49-.15,13.4-.3,27.26,1.09,40.73,2.78,26.93,9.33,66.83,24.7,104,31.53,76.18,84.09,125.69,136.19,167.85,30.57,24.73,57.84,43.26,83.74,56.75q-9-7.39-17.57-15.76l-4.38-4.32a443.64,443.64,0,0,1-75.07-61.51c-20.86-21.28-35-45.53-45.52-69.6A313.94,313.94,0,0,1,226.24,605c-8.24-24.32-14.37-49.84-16-75.31-3-45.48-2.07-82.57,3-120.25C218.34,370.72,227.26,340.26,243.9,304.59Zm69,473.17c9.39,18.52,21.38,36.7,37.39,53a441.16,441.16,0,0,0,53.39,46.39,468.48,468.48,0,0,1-32.21-39.95q-9.51-9.57-18.85-19.77-6.94-7.59-13.68-15.51Q325.2,790.34,312.9,777.76Zm29.81,20.39q3.56,3,7.22,6c-1.17-2-2.33-4-3.46-6.05-22.84-40.6-37.12-82.52-42.42-124.65-9.25-73.31,1.87-156,31.29-233,11.31-29.58,29.1-72.35,52.85-102.17,25.94-32.56,57.71-61.52,79.8-80.09,52.79-44.38,137.07-66.35,198.35-72.13,59.6-5.62,123.53,2.78,179,22.75-88.05-42.5-182.26-58-250.88-63.22-48.31-3.65-99.87,5.19-149.11,25.59-40.51,16.78-69,47-99.1,78.93l-2.41,2.55c-47,49.79-77.6,106.79-98.25,184.73q-.43,4.17-.71,8.35c-1.4,21.47,1.51,43.11,4.32,64.05,1.09,8.18,2.23,16.64,3.1,25,.94,9,1.74,18.15,2.52,27,2.28,25.76,4.63,52.42,10.42,78,4.19,18.56,10.42,36.85,16.45,54.55,2.88,8.47,5.87,17.22,8.59,25.91q1.95,6.21,4.1,12.59A603.82,603.82,0,0,0,342.71,798.15ZM305.53,762q3.38,3.81,6.89,7.53c1.2,1.27,2.41,2.52,3.63,3.77q-7.05-9.37-13.74-19Q303.87,758.18,305.53,762ZM238.39,636.88a307.28,307.28,0,0,0,56,111.88q-2.58-6.87-4.87-13.61c-10.24-16-19.64-32.46-28.07-49C253.87,671.14,245.82,654.55,238.39,636.88Zm-6.94-33.11c9.91,29.13,22.9,56.54,34.78,79.92q7.62,15,16.28,29.73c-1.92-5.85-3.91-11.68-5.86-17.38-6.07-17.82-12.35-36.26-16.6-55.1-5.87-25.94-8.24-52.78-10.53-78.72-.78-8.82-1.58-18-2.51-26.91-.86-8.28-2-16.69-3.09-24.84-2.07-15.44-4.19-31.24-4.64-47.2q-2.85,12.64-5.4,26A335.48,335.48,0,0,0,231.45,603.77Zm858.19-30.7q-.95,6-2.08,11.89a411.42,411.42,0,0,1-17,61.34c7.63-16.72,15.12-35.88,20-55Q1090.28,582.19,1089.64,573.07ZM286.7,246c-14.17,19-27.76,39.08-37.55,60-16.67,35.52-25.56,65.72-30.69,104.21-5,37.32-5.89,74.08-2.93,119.19A259.51,259.51,0,0,0,223,575.28a345.21,345.21,0,0,1,5.65-87c3.51-18.3,7.39-35.56,11.71-51.92,1.7-15.91,5-31.62,8.23-46.91,1.76-8.39,3.59-17.06,5.11-25.62,1.06-5.95,2.08-12.1,3.07-18.05,4.09-24.72,8.31-50.27,17.35-73.52A211.38,211.38,0,0,1,286.7,246Zm806,302.7c.84,7.1,1.52,14.23,2.06,21.35.24-1.79.45-3.57.62-5.34a170.43,170.43,0,0,0-1.17-39.33Q1093.78,537.13,1092.7,548.7Zm-35.41-133.28q7.28,16.6,13.24,34.13A474.67,474.67,0,0,1,1089,522.68q.38-12.49,0-25.2c-2.76-11.83-6.09-23.63-9.57-35.21a450.37,450.37,0,0,0-50.7-110.7q4.5,10.29,8.48,20.79c9.18,13.28,16.85,27.18,23.25,39.25a2.67,2.67,0,0,1-3.13,3.81Zm-44-95.72c31.49,42.52,56.05,90.61,71.17,141q1.44,4.78,2.83,9.61a490.9,490.9,0,0,0-31.27-132.22c-28.09-72.56-83.7-138-152.59-179.49-37.24-22.43-76.84-36.58-119.05-46.85,48.34,17.95,94.44,46.88,135.27,85.16A470,470,0,0,1,1013.33,319.7ZM311.21,216.46c-11.95,18.42-24.24,37.45-32.13,57.75-8.84,22.72-13,48-17.06,72.43-1,6-2,12.15-3.08,18.15-1.54,8.61-3.37,17.33-5.15,25.76-.31,1.51-.64,3.05-1,4.58C273.11,336.47,301,290.3,340,249l2.41-2.56c30.53-32.37,59.37-63,100.94-80.18,50-20.73,102.41-29.71,151.55-26,108.09,8.2,206.18,35.93,283.68,80.2q17.46,10,33.56,21a314.37,314.37,0,0,1,30.76,23.09q4.41,3.62,8.7,7.34a357.49,357.49,0,0,0-21-31.32,405.49,405.49,0,0,0-51.16-35.4,2.67,2.67,0,0,1,2.68-4.63,403.6,403.6,0,0,1,34.51,22.56C868,166.07,803.73,126.36,735.4,103c-55.12-12.2-119.34-22.18-180.32-6.49-74.32,19.15-131.17,42.17-178.93,72.5l-4.93,3.13C350.42,185.29,329.07,198.81,311.21,216.46ZM964.07,283.2a399.55,399.55,0,0,1,59.94,71q-7.05-16.2-15.28-31.73a456,456,0,0,0-62-68.13Q956.08,268.35,964.07,283.2ZM934,236.49a451,451,0,0,1,57,55.33C941.35,213.1,869.46,151.29,789.62,119.55A417.12,417.12,0,0,1,893.17,191,375.72,375.72,0,0,1,934,236.49Zm-350.79-159a413.19,413.19,0,0,0-70,5.8c-49.58,8.51-86.62,20.48-116.57,37.63-29.76,17-49.56,41.29-68.35,69.24,39.06-37,77.2-66.66,124-85.64,59-23.93,132-30.28,217-18.91A467.72,467.72,0,0,0,583.21,77.48Zm.86,8c-48.71.71-92.12,8.7-129.73,24C412.17,126.56,377,152.59,341.69,185c8.8-6.06,17.79-11.74,26.68-17.38l4.93-3.13c48.24-30.62,105.58-53.88,180.45-73.14A247.72,247.72,0,0,1,584.07,85.52Z" transform="translate(-128.56 -9.6)"/><path class="cls-5" d="M677.86,1010.47a366.3,366.3,0,0,1-74-7.4l-1.25-.26C515.76,985,417.27,964.7,344,911.13c-55.36-40.48-105.87-98.2-154.41-176.42A401.75,401.75,0,0,1,139.16,611.3c-9.64-42.66-12.72-87.77-9.17-134.1,7.58-98.81,36.52-185.69,86-258.23,7.26-10.66,16.63-23.67,27.8-37.64,18-35.86,81.43-94.89,113.14-109.15C482,16,605.55-2.49,724.26,17.26a567.58,567.58,0,0,1,86,21.44c86.21-3,183.41,21.75,235.32,149.68a437.7,437.7,0,0,1,63.43,98.68c27.52,58.36,44.43,124.38,50.27,196.26,5,61.77,1.47,125.39-10.26,184-10.71,53.49-27.54,98.89-47.4,127.84-32,46.61-73.73,84.21-127.81,114.53a411.69,411.69,0,0,1-66.66,40.89C826.68,990.45,749.85,1010.47,677.86,1010.47ZM236.12,200c-6,8-11.27,15.48-15.73,22-48.95,71.75-77.57,157.76-85.08,255.62-7.13,92.86,13.21,180.78,58.8,254.27,48.17,77.64,98.23,134.86,153,174.93,72.33,52.89,170.23,73,256.6,90.77l1.24.26c91.28,18.77,192.17,1.27,299.86-52q16.27-8.05,31.19-17a675.72,675.72,0,0,1-85,31.53c-93.94,28.27-201.63,10.38-274.47-5.54-75.23-16.46-160.5-35.1-232.48-89.28-36.94-27.8-69.47-53.87-93.47-91.42-23.26-36.41-44.14-81.24-60.36-129.62-17.51-52.22-26-107.62-25.21-164.69a516.05,516.05,0,0,1,28.55-163c38.22-109.7,110.64-195.87,203.92-242.62a248.69,248.69,0,0,1,29.65-12.51c-23.41,4.38-43.69,11-61.5,20-47.31,23.81-88.35,66.37-117.35,102.6-.59,1.21-1.13,2.41-1.61,3.57s-1.24,3.08-2.25,5.67c-13.14,33.39-14.76,35-17.18,35.35a2.84,2.84,0,0,1-2.7-1,2.68,2.68,0,0,1,.38-3.76,2.44,2.44,0,0,1,.78-.44C227.68,220.72,232.48,209.08,236.12,200ZM465.24,56.72C442.8,61.42,420.94,68.4,399.88,79,214,172.1,122.26,425,195.28,642.78c16.09,48,36.77,92.4,59.81,128.45,23.51,36.79,55.65,62.55,92.17,90,71.06,53.49,155.72,72,230.42,88.33,72.26,15.8,179,33.57,271.8,5.65,46.19-13.9,86.43-30.41,121.42-50,50.35-38.31,87.52-87.43,114.63-150.65,29.11-67.86,44.56-148.65,44.69-233.64.09-69.33-16.47-149.64-42.21-204.61-23.34-49.86-66-101.93-126.65-154.78-22.47-19.57-50.71-30.05-78-40.19-5.62-2.09-11.42-4.25-17.06-6.44-15.69-6.1-30.49-11.51-45.08-16.06,66.94,45.57,105.12,113.4,126.14,166.63a502.14,502.14,0,0,1,24.91,85c41.24,56.43,55.42,131.59,66.29,204.29,14.62,97.85-13.17,199.11-72.52,264.27C885.92,907,753.42,915,634.39,911.32,496.41,907,395,876,324.3,816.62c-68-57.15-113.23-145.87-124-243.41a399.54,399.54,0,0,1,8.82-140.13c11.63-47.19,31.58-89.7,59.3-126.39,48.73-64.46,100.93-115.81,155.13-152.59,61.59-41.81,128.2-66.54,198-73.51,40.93-4.09,89.84-7.32,142.2-.27,7.26,1,14.35,2.18,21.34,3.6q-5.06-2.49-10.27-4.81a358.78,358.78,0,0,0-65.24-21.54l-6.33,1.25c-25.53,5.06-45.69,9.07-56.72,7C609,59,569.47,57,535.32,55.71A593.15,593.15,0,0,0,465.24,56.72ZM699,81.52c-27.69,0-53.64,2-77,4.38C491,99,376.67,172.29,272.63,309.92,160.26,458.59,186,693.45,327.73,812.54c69.73,58.58,170.09,89.14,306.83,93.43,117.82,3.71,248.88-4.17,327.53-90.52,58.3-64,85.57-163.56,71.18-259.86-10.14-67.87-23.18-137.89-58.58-192.16,9.8,55.66,11,113.65,3.08,168.06A413.85,413.85,0,0,1,936.51,659.9C914.58,702.36,886,738.12,853.8,763.31c-33,25.85-74.69,45.21-120.41,56a376,376,0,0,1-131.48,7.11c-63-7.88-143-25.35-202.22-90.91-44.06-48.77-73.35-115.86-80.36-184.08a358.82,358.82,0,0,1,10.22-127.23C341.24,380.06,361,341.28,386.61,312c48.56-55.46,118.26-90.64,201.55-101.7,68-9,142.16-2.55,214.42,18.75,56.53,16.67,111,53.45,157.54,106.34,1.53,1.74,3,3.49,4.5,5.28-22.76-101.6-75.75-196.3-161.78-247.1a327.44,327.44,0,0,0-39.85-8A480.2,480.2,0,0,0,699,81.52ZM805,88.6c20.63,5.46,41,12.71,63.23,21.35,5.6,2.18,11.39,4.32,17,6.39,27.76,10.32,56.45,21,79.66,41.18,61.26,53.33,104.32,106,128,156.53,26,55.63,42.8,136.85,42.71,206.91-.13,85.7-15.73,167.21-45.12,235.73-22.34,52.1-51.42,94.74-88.94,129.76,39-26.32,70.52-57.46,95.79-94.29,19.46-28.37,36-73.06,46.56-125.87C1155.48,608.15,1159,545,1154,483.76c-12.52-154-77.39-280.61-182.67-356.4A604.68,604.68,0,0,0,808.74,44.18c-31.33,1.19-61.14,6.09-86.69,11a357,357,0,0,1,54.88,19.08A279.8,279.8,0,0,1,805,88.6ZM649.35,211.67a461,461,0,0,0-60.49,3.91c-82,10.9-150.55,45.45-198.24,99.94-49,56-74.91,148.35-66,235.32,6.89,67.12,35.69,133.1,79,181,58.05,64.26,136.81,81.44,198.93,89.22,89.71,11.23,184.72-12.52,247.94-62,61.67-48.26,108.41-135.78,122-228.38,8.25-56.25,6.66-118.14-5.34-178.16q-5.22-7-11-13.66c-45.87-52.12-99.49-88.36-155.06-104.73C750.48,219.25,699,211.67,649.35,211.67ZM825.27,43.91A615.94,615.94,0,0,1,974.46,123a405.84,405.84,0,0,1,59.87,52.74C985.56,70.52,902.45,44.39,825.27,43.91ZM630.16,15.4c-80.74,0-171.62,17-271,61.66-14.66,6.59-36.25,23-56.79,42.06,18.61-16.39,39.1-31.27,60.92-42.26C390.62,63.1,423.58,54.73,464.4,51.43c34.62-7.22,70.52-9.09,107.05-10.2,39.61-1.22,87.82-.54,138.17,10.87,24.38-4.81,53.5-10.22,84.58-12.51A566.58,566.58,0,0,0,630.16,15.4ZM512.52,49.82q11.18.09,23,.54c34.33,1.33,74.12,3.32,111.91,10.24,9.22,1.7,26.64-1.48,48.79-5.84-45.37-8.83-88.58-9.29-124.62-8.19C551.68,47.17,531.94,48,512.52,49.82Z" transform="translate(-128.56 -9.6)"/><path class="cls-6" d="M314.84,183.66" transform="translate(-128.56 -9.6)"/><path class="cls-7" d="M288,130.41" transform="translate(-128.56 -9.6)"/><path class="cls-7" d="M181.78,279.28" transform="translate(-128.56 -9.6)"/><path class="cls-8" d="M244.7,348.56" transform="translate(-128.56 -9.6)"/><path class="cls-8" d="M245.73,307.2" transform="translate(-128.56 -9.6)"/><path class="cls-8" d="M190,461.25" transform="translate(-128.56 -9.6)"/><path class="cls-8" d="M153.93,349.59" transform="translate(-128.56 -9.6)"/><path class="cls-9" d="M191.06,315.47" transform="translate(-128.56 -9.6)"/><path class="cls-10" d="M499,174.35c-10,0-10,15.5,0,15.5S508.93,174.35,499,174.35Z" transform="translate(-128.56 -9.6)"/><path class="cls-10" d="M856.36,791.58c-10,0-10,15.5,0,15.5S866.33,791.58,856.36,791.58Z" transform="translate(-128.56 -9.6)"/><path class="cls-11" d="M183.33,369.76" transform="translate(-128.56 -9.6)"/></svg>